# xmcd
#
# Track frame offsets: 
#        150
#        11333
#        24889
#        39533
#        51414
#        60806
#        73255
#        84799
#        103997
#        115151
#        129264
#        140205
#        155471
#
# Disc length: 2262 seconds
#
# Revision: 0
# Processed by: cddbd v1.5.2PL0 Copyright (c) Steve Scherf et al.
# Submitted via: ExactAudioCopy v1.1
#
DISCID=a508d40d
DTITLE=The Rolling Stones - Another Time, Another Place [CD1]
DYEAR=1900
DGENRE=R&B
TTITLE0=Around And Around
TTITLE1=Time Is On My Side
TTITLE2=The Last Time
TTITLE3=Little Red Rooster
TTITLE4=Someone To Love
TTITLE5=(I Can't Get No) Satisfaction
TTITLE6=As Tears Go By
TTITLE7=19th Nervous Breakdown
TTITLE8=Paint It Black
TTITLE9=Lady Jane
TTITLE10=Have You Seen Your Mother Baby Standing In The Shadow
TTITLE11=Ruby Tuesday
TTITLE12=Let's Spend The Night Together
EXTD=
EXTT0=
EXTT1=
EXTT2=
EXTT3=
EXTT4=
EXTT5=
EXTT6=
EXTT7=
EXTT8=
EXTT9=
EXTT10=
EXTT11=
EXTT12=
PLAYORDER=
